<?xml version="1.0" encoding="UTF-8" standalone="no"?>
<!DOCTYPE svg PUBLIC "-//W3C//DTD SVG 1.1//EN" "http://www.w3.org/Graphics/SVG/1.1/DTD/svg11.dtd">
<svg width="100%" height="100%" viewBox="0 0 1250 1250" version="1.1" xmlns="http://www.w3.org/2000/svg" xmlns:xlink="http://www.w3.org/1999/xlink" xml:space="preserve" style="fill-rule:evenodd;clip-rule:evenodd;stroke-linejoin:round;stroke-miterlimit:1.41421;">
    <g transform="matrix(4.16667,0,0,4.16667,-0,-0)">
        <g transform="matrix(3.99883,-1.97215e-31,-3.9443e-31,3.99883,0,0)">
            <clipPath id="_clip1">
                <path d="M37.511,75C58.228,75 75.022,58.211 75.022,37.5C75.022,16.789 58.228,0 37.511,0C16.794,0 0,16.789 0,37.5C0,58.211 16.794,75 37.511,75Z"/>
            </clipPath>
            <g clip-path="url(#_clip1)">
                <rect x="-5" y="-5" width="85.022" height="85" style="fill:rgb(249,190,0);fill-rule:nonzero;"/>
            </g>
            <clipPath id="_clip2">
                <path d="M10.23,31.364C10.23,23.079 16.948,16.364 25.235,16.364C30.309,16.364 34.796,18.882 37.511,22.737C40.226,18.882 44.713,16.364 49.787,16.364C58.074,16.364 64.792,23.079 64.792,31.364C64.792,46.466 37.511,64.536 37.511,64.536C37.511,64.536 10.23,46.466 10.23,31.364Z"/>
            </clipPath>
            <g clip-path="url(#_clip2)">
                <rect x="5.23" y="11.364" width="64.561" height="58.172" style="fill:rgb(74,109,247);fill-rule:nonzero;"/>
            </g>
            <clipPath id="_clip3">
                <path d="M27.963,28.636L27.963,24.549C27.963,23.784 27.353,23.182 26.6,23.182L23.869,23.182C23.111,23.182 22.507,23.794 22.507,24.549L22.507,28.636L18.42,28.636C17.655,28.636 17.053,29.246 17.053,29.998L17.053,32.729C17.053,33.487 17.665,34.092 18.42,34.092L22.507,34.092L22.507,38.178C22.507,38.944 23.117,39.545 23.869,39.545L26.6,39.545C27.358,39.545 27.963,38.933 27.963,38.178L27.963,34.092L32.049,34.092C32.815,34.092 33.416,33.482 33.416,32.729L33.416,29.998C33.416,29.24 32.804,28.636 32.049,28.636L27.963,28.636Z"/>
            </clipPath>
            <g clip-path="url(#_clip3)">
                <rect x="12.053" y="18.182" width="26.364" height="26.364" style="fill:white;fill-rule:nonzero;"/>
            </g>
            <clipPath id="_clip4">
                <path d="M43.649,34.773C45.532,34.773 47.059,33.246 47.059,31.364C47.059,29.481 45.532,27.955 43.649,27.955C41.766,27.955 40.239,29.481 40.239,31.364C40.239,33.246 41.766,34.773 43.649,34.773ZM55.925,34.773C57.809,34.773 59.336,33.246 59.336,31.364C59.336,29.481 57.809,27.955 55.925,27.955C54.042,27.955 52.515,29.481 52.515,31.364C52.515,33.246 54.042,34.773 55.925,34.773ZM49.787,28.636C51.671,28.636 53.197,27.11 53.197,25.227C53.197,23.344 51.671,21.818 49.787,21.818C47.904,21.818 46.377,23.344 46.377,25.227C46.377,27.11 47.904,28.636 49.787,28.636ZM49.787,40.909C51.671,40.909 53.197,39.383 53.197,37.5C53.197,35.617 51.671,34.091 49.787,34.091C47.904,34.091 46.377,35.617 46.377,37.5C46.377,39.383 47.904,40.909 49.787,40.909Z"/>
            </clipPath>
            <g clip-path="url(#_clip4)">
                <rect x="35.239" y="16.818" width="29.096" height="29.091" style="fill:white;fill-rule:nonzero;"/>
            </g>
        </g>
    </g>
</svg>
